<svg width="28" height="28" viewBox="0 0 28 28" fill="none" xmlns="http://www.w3.org/2000/svg">
<g clip-path="url(#clip0)">
<path d="M0.0223933 -0.00141771H1.68929C3.36879 -0.00141771 5.04829 -0.0182177 6.72778 0.0139823C7.0077 0.0139823 7.38838 0.153982 7.54514 0.366782C10.8761 4.83185 14.1927 9.30672 17.4948 13.7914C17.5394 13.8626 17.5796 13.9364 17.6151 14.0126L11.6053 22.1326C10.2617 23.9526 8.92232 25.7726 7.56333 27.573C7.42337 27.755 7.17705 27.9664 6.97831 27.9692C4.71519 27.9986 2.45626 27.9986 0 27.9986C3.49895 23.2652 6.90973 18.655 10.3569 13.9902L0.0223933 -0.00141771Z" fill="#E79696"/>
<path d="M27.9997 28H24.1103C23.1544 28 22.197 28.0154 21.2411 27.9902C21.0102 27.9902 20.6813 27.9202 20.5679 27.7606C18.7765 25.3806 17.0116 22.9796 15.2188 20.5534L18.8577 15.6422L27.9997 28Z" fill="#E79696"/>
<path d="M27.9761 0L18.8579 12.32L15.0664 7.392L17.1658 4.788L20.9936 0.0238C23.2568 0 25.5157 0 27.9761 0Z" fill="#E79696"/>
</g>
<defs>
<clipPath id="clip0">
<rect width="28" height="28" fill="white"/>
</clipPath>
</defs>
</svg>
