<svg width="33" height="33" viewBox="0 0 33 33" fill="none" xmlns="http://www.w3.org/2000/svg">
<path d="M8.9375 5.15969V16.3384L9.59819 28.875C11.6084 29.2779 13.9219 29.4972 16.5 29.5625V23.9656C16.4257 21.274 17.7031 20.0523 20.02 19.657L25.3763 18.9585L23.8624 15.2323C21.2479 14.8232 18.9764 14.3309 17.8172 13.75C16.3432 12.9773 15.8696 11.2289 17.1297 9.91169C17.5491 9.47306 18.6801 8.94438 19.9616 8.9375H26.0748L24.9686 4.86887C22.5809 4.11744 18.3982 3.79981 14.0229 3.4375C12.4616 3.729 10.7937 4.3175 8.9375 5.15969Z" fill="#E79696"/>
<path d="M20.02 19.657L25.3763 18.9585L23.8625 15.2323C21.2479 14.8232 18.9764 14.3309 17.8173 13.75C16.3433 12.9773 15.8696 11.2289 17.1298 9.9117C17.5491 9.47307 18.6801 8.94439 19.9616 8.93751H25.6273C23.1124 8.40057 21.041 7.93857 18.9633 7.90626C15.0515 7.84576 12.551 9.81751 12.2602 13.0625C12.0753 15.1223 12.2526 17.3477 13.0625 19.9375C13.847 22.4489 14.9215 25.8438 16.5 29.3597V23.9656C16.4258 21.274 17.7031 20.0523 20.02 19.657Z" fill="#F0B2B2"/>
<path d="M16.5 16.8437C16.5 17.7932 17.2693 18.5625 18.2188 18.5625H25.2154L23.8624 15.2323C23.6397 15.1972 23.4231 15.1607 23.2059 15.125H18.2188C17.2693 15.125 16.5 15.8943 16.5 16.8437Z" fill="#E79696"/>
<path d="M13.6934 3.66644C13.6934 3.66644 13.4322 4.01776 13.0712 4.68601C12.8932 5.02082 12.6869 5.43263 12.4869 5.92007C12.2834 6.40613 12.0833 6.96507 11.8894 7.58176C11.6928 8.19707 11.5306 8.87907 11.3834 9.60301C11.325 9.96807 11.2659 10.3428 11.2047 10.7257C11.1689 11.1121 11.1084 11.5039 11.0754 11.9048C11.006 12.7064 10.9895 13.5424 10.9909 14.3832C11.0053 15.2288 11.0803 16.0779 11.2074 16.9283C11.4446 18.6285 11.8771 20.3005 12.4209 21.8151C12.9674 23.3283 13.657 24.6778 14.2895 25.8163C14.9275 26.9507 15.4686 27.8953 15.8721 28.5416C16.2723 29.1913 16.5005 29.5625 16.5005 29.5625C16.5005 29.5625 16.22 29.2277 15.7621 28.6165C15.3118 28.0005 14.6553 27.1253 13.9581 26.0129C13.2713 24.8999 12.4628 23.5778 11.8557 22.0309C11.2397 20.493 10.7846 18.7749 10.5275 17.0259C10.4051 16.1528 10.335 15.2618 10.3281 14.3935C10.3322 13.519 10.3866 12.6686 10.4759 11.8443C10.5674 11.0213 10.7234 10.2348 10.8974 9.49713C11.0878 8.76288 11.2906 8.07538 11.5257 7.45732C11.7499 6.83582 12.007 6.28582 12.2572 5.81213C12.5034 5.33638 12.7481 4.93832 12.9571 4.61726C13.3854 3.97994 13.6934 3.66644 13.6934 3.66644Z" fill="#F0B2B2"/>
</svg>
