<svg width="35" height="35" viewBox="0 0 35 35" fill="none" xmlns="http://www.w3.org/2000/svg">
<path d="M9.79981 2.79315C5.94 2.79315 2.7998 5.93335 2.7998 9.79315V25.1931C2.7998 29.0529 5.94 32.1931 9.79981 32.1931H25.1998C29.0596 32.1931 32.1998 29.0529 32.1998 25.1931V9.79315C32.1998 5.93335 29.0596 2.79315 25.1998 2.79315H9.79981ZM27.7195 6.30272C28.0716 6.26772 28.4028 6.50367 28.477 6.85507C29.2561 10.5413 28.4193 18.1972 19.6791 20.7963C18.4919 21.1491 17.4042 21.4331 16.3514 21.7082C11.6047 22.9465 8.73813 23.6932 7.69023 28.1599C7.61603 28.4784 7.33274 28.7 7.01074 28.7C6.99184 28.7 6.97222 28.6987 6.95332 28.6973C6.60822 28.6693 6.33591 28.3943 6.31211 28.0492C6.30441 27.9449 5.70274 17.5894 16.5359 14.8517C26.3303 12.3779 27.092 8.21522 27.092 6.99862C27.092 6.64022 27.3632 6.34052 27.7195 6.30272ZM27.215 10.5943C27.1219 10.7217 27.02 10.849 26.9129 10.9785C25.8286 12.8426 23.4959 15.0317 18.4979 16.3092C13.6252 17.5657 11.2863 19.1128 9.89824 20.6486C9.12544 21.7105 8.6187 22.8183 8.2918 23.841C8.3961 23.7269 8.51342 23.6295 8.62402 23.5238C10.4426 21.1228 14.0453 19.3998 17.4998 18.9C21.2679 18.3547 23.7294 16.8454 24.9264 15.9291C26.325 14.261 26.9924 12.3401 27.215 10.5943Z" fill="#E79696"/>
</svg>
