<svg width="40" height="40" viewBox="0 0 40 40" fill="none" xmlns="http://www.w3.org/2000/svg">
<path d="M33.333 30H29.9997V15.4167L19.9997 21.6667L9.99967 15.4167V30H6.66634V10H8.66634L19.9997 17.0834L31.333 10H33.333V30ZM33.333 6.66669H6.66634C4.81634 6.66669 3.33301 8.15002 3.33301 10V30C3.33301 30.8841 3.6842 31.7319 4.30932 32.357C4.93444 32.9822 5.78229 33.3334 6.66634 33.3334H33.333C34.2171 33.3334 35.0649 32.9822 35.69 32.357C36.3152 31.7319 36.6663 30.8841 36.6663 30V10C36.6663 9.11597 36.3152 8.26812 35.69 7.643C35.0649 7.01788 34.2171 6.66669 33.333 6.66669Z" fill="#E79696"/>
</svg>
